<?xml version="1.0" encoding="UTF-8" standalone="no"?>
<svg width="400" height="400" xmlns="http://www.w3.org/2000/svg">
  <rect width="100%" height="100%" fill="#ffffff" />
  <path d="M200.00,50.00 A150.00,150.00 0 0,1 233.38,53.76 L200.00,200.00 Z" fill="#0e0e0c" />
  <path d="M233.38,53.76 A150.00,150.00 0 0,1 265.08,64.85 L200.00,200.00 Z" fill="#0f0f0d" />
  <path d="M265.08,64.85 A150.00,150.00 0 0,1 293.52,82.73 L200.00,200.00 Z" fill="#10100e" />
  <path d="M293.52,82.73 A150.00,150.00 0 0,1 317.27,106.48 L200.00,200.00 Z" fill="#0d0d0b" />
  <path d="M317.27,106.48 A150.00,150.00 0 0,1 335.15,134.92 L200.00,200.00 Z" fill="#e42338" />
  <path d="M335.15,134.92 A150.00,150.00 0 0,1 346.24,166.62 L200.00,200.00 Z" fill="#e52439" />
  <path d="M346.24,166.62 A150.00,150.00 0 0,1 350.00,200.00 L200.00,200.00 Z" fill="#e32235" />
  <path d="M350.00,200.00 A150.00,150.00 0 0,1 346.24,233.38 L200.00,200.00 Z" fill="#0c0c0a" />
  <path d="M346.24,233.38 A150.00,150.00 0 0,1 335.15,265.08 L200.00,200.00 Z" fill="#11110f" />
  <path d="M335.15,265.08 A150.00,150.00 0 0,1 317.27,293.52 L200.00,200.00 Z" fill="#e62538" />
  <path d="M317.27,293.52 A150.00,150.00 0 0,1 293.52,317.27 L200.00,200.00 Z" fill="#0b0d0c" />
  <path d="M293.52,317.27 A150.00,150.00 0 0,1 265.08,335.15 L200.00,200.00 Z" fill="#e72639" />
  <path d="M265.08,335.15 A150.00,150.00 0 0,1 233.38,346.24 L200.00,200.00 Z" fill="#090b08" />
  <path d="M233.38,346.24 A150.00,150.00 0 0,1 200.00,350.00 L200.00,200.00 Z" fill="#e2222f" />
  <path d="M200.00,350.00 A150.00,150.00 0 0,1 166.62,346.24 L200.00,200.00 Z" fill="#0b0b09" />
  <path d="M166.62,346.24 A150.00,150.00 0 0,1 134.92,335.15 L200.00,200.00 Z" fill="#e22134" />
  <path d="M134.92,335.15 A150.00,150.00 0 0,1 106.48,317.27 L200.00,200.00 Z" fill="#0a0a08" />
  <path d="M106.48,317.27 A150.00,150.00 0 0,1 82.73,293.52 L200.00,200.00 Z" fill="#121210" />
  <path d="M82.73,293.52 A150.00,150.00 0 0,1 64.85,265.08 L200.00,200.00 Z" fill="#d21c29" />
  <path d="M64.85,265.08 A150.00,150.00 0 0,1 53.76,233.38 L200.00,200.00 Z" fill="#e1212e" />
  <path d="M53.76,233.38 A150.00,150.00 0 0,1 50.00,200.00 L200.00,200.00 Z" fill="#d31d2a" />
  <path d="M50.00,200.00 A150.00,150.00 0 0,1 53.76,166.62 L200.00,200.00 Z" fill="#cb1925" />
  <path d="M53.76,166.62 A150.00,150.00 0 0,1 64.85,134.92 L200.00,200.00 Z" fill="#ca1824" />
  <path d="M64.85,134.92 A150.00,150.00 0 0,1 82.73,106.48 L200.00,200.00 Z" fill="#c91723" />
  <path d="M82.73,106.48 A150.00,150.00 0 0,1 106.48,82.73 L200.00,200.00 Z" fill="#e5253a" />
  <path d="M106.48,82.73 A150.00,150.00 0 0,1 134.92,64.85 L200.00,200.00 Z" fill="#0a0c0b" />
  <path d="M134.92,64.85 A150.00,150.00 0 0,1 166.62,53.76 L200.00,200.00 Z" fill="#d91f2d" />
  <path d="M166.62,53.76 A150.00,150.00 0 0,1 200.00,50.00 L200.00,200.00 Z" fill="#e3233a" />
</svg>
