<?xml version="1.0" encoding="UTF-8" standalone="no"?>
<svg width="400" height="400" xmlns="http://www.w3.org/2000/svg">
  <rect width="100%" height="100%" fill="#ffffff" />
  <path d="M200.00,50.00 A150.00,150.00 0 0,1 232.25,53.51 L200.00,200.00 Z" fill="#10110b" />
  <path d="M232.25,53.51 A150.00,150.00 0 0,1 262.98,63.86 L200.00,200.00 Z" fill="#0e0f09" />
  <path d="M262.98,63.86 A150.00,150.00 0 0,1 290.78,80.59 L200.00,200.00 Z" fill="#0e0403" />
  <path d="M290.78,80.59 A150.00,150.00 0 0,1 314.32,102.89 L200.00,200.00 Z" fill="#0f100a" />
  <path d="M314.32,102.89 A150.00,150.00 0 0,1 332.53,129.74 L200.00,200.00 Z" fill="#11120c" />
  <path d="M332.53,129.74 A150.00,150.00 0 0,1 344.53,159.87 L200.00,200.00 Z" fill="#0f0504" />
  <path d="M344.53,159.87 A150.00,150.00 0 0,1 349.78,191.88 L200.00,200.00 Z" fill="#0d0e08" />
  <path d="M349.78,191.88 A150.00,150.00 0 0,1 348.02,224.27 L200.00,200.00 Z" fill="#11100b" />
  <path d="M348.02,224.27 A150.00,150.00 0 0,1 339.35,255.52 L200.00,200.00 Z" fill="#0f0e09" />
  <path d="M339.35,255.52 A150.00,150.00 0 0,1 324.15,284.18 L200.00,200.00 Z" fill="#100f0a" />
  <path d="M324.15,284.18 A150.00,150.00 0 0,1 303.15,308.90 L200.00,200.00 Z" fill="#0e0d08" />
  <path d="M303.15,308.90 A150.00,150.00 0 0,1 277.33,328.53 L200.00,200.00 Z" fill="#0c0d07" />
  <path d="M277.33,328.53 A150.00,150.00 0 0,1 247.90,342.15 L200.00,200.00 Z" fill="#0d0c07" />
  <path d="M247.90,342.15 A150.00,150.00 0 0,1 216.22,349.12 L200.00,200.00 Z" fill="#0b0603" />
  <path d="M216.22,349.12 A150.00,150.00 0 0,1 183.78,349.12 L200.00,200.00 Z" fill="#11120a" />
  <path d="M183.78,349.12 A150.00,150.00 0 0,1 152.10,342.15 L200.00,200.00 Z" fill="#0a0905" />
  <path d="M152.10,342.15 A150.00,150.00 0 0,1 122.67,328.53 L200.00,200.00 Z" fill="#12130b" />
  <path d="M122.67,328.53 A150.00,150.00 0 0,1 96.85,308.90 L200.00,200.00 Z" fill="#12130d" />
  <path d="M96.85,308.90 A150.00,150.00 0 0,1 75.85,284.18 L200.00,200.00 Z" fill="#090804" />
  <path d="M75.85,284.18 A150.00,150.00 0 0,1 60.65,255.52 L200.00,200.00 Z" fill="#0b0c06" />
  <path d="M60.65,255.52 A150.00,150.00 0 0,1 51.98,224.27 L200.00,200.00 Z" fill="#080703" />
  <path d="M51.98,224.27 A150.00,150.00 0 0,1 50.22,191.88 L200.00,200.00 Z" fill="#12110c" />
  <path d="M50.22,191.88 A150.00,150.00 0 0,1 55.47,159.87 L200.00,200.00 Z" fill="#101109" />
  <path d="M55.47,159.87 A150.00,150.00 0 0,1 67.47,129.74 L200.00,200.00 Z" fill="#0c0b06" />
  <path d="M67.47,129.74 A150.00,150.00 0 0,1 85.68,102.89 L200.00,200.00 Z" fill="#13140c" />
  <path d="M85.68,102.89 A150.00,150.00 0 0,1 109.22,80.59 L200.00,200.00 Z" fill="#0a0b05" />
  <path d="M109.22,80.59 A150.00,150.00 0 0,1 137.02,63.86 L200.00,200.00 Z" fill="#fbcc0d" />
  <path d="M137.02,63.86 A150.00,150.00 0 0,1 167.75,53.51 L200.00,200.00 Z" fill="#fcd20c" />
  <path d="M167.75,53.51 A150.00,150.00 0 0,1 200.00,50.00 L200.00,200.00 Z" fill="#0d0302" />
</svg>
