<?xml version="1.0" encoding="UTF-8" standalone="no"?>
<svg width="400" height="400" xmlns="http://www.w3.org/2000/svg">
  <rect width="100%" height="100%" fill="#ffffff" />
  <path d="M200.00,50.00 A150.00,150.00 0 0,1 288.17,78.65 L200.00,200.00 Z" fill="#0e0e0c" />
  <path d="M288.17,78.65 A150.00,150.00 0 0,1 342.66,153.65 L200.00,200.00 Z" fill="#0f0f0d" />
  <path d="M342.66,153.65 A150.00,150.00 0 0,1 342.66,246.35 L200.00,200.00 Z" fill="#10100e" />
  <path d="M342.66,246.35 A150.00,150.00 0 0,1 288.17,321.35 L200.00,200.00 Z" fill="#0d0d0b" />
  <path d="M288.17,321.35 A150.00,150.00 0 0,1 200.00,350.00 L200.00,200.00 Z" fill="#e42338" />
  <path d="M200.00,350.00 A150.00,150.00 0 0,1 111.83,321.35 L200.00,200.00 Z" fill="#e52439" />
  <path d="M111.83,321.35 A150.00,150.00 0 0,1 57.34,246.35 L200.00,200.00 Z" fill="#e32235" />
  <path d="M57.34,246.35 A150.00,150.00 0 0,1 57.34,153.65 L200.00,200.00 Z" fill="#0c0c0a" />
</svg>
